<svg xmlns="http://www.w3.org/2000/svg" width="50" height="50" fill="none">
  <path fill="#FFC107" d="M25 50a25 25 0 1 0 0-50 25 25 0 0 0 0 50Z"/>
  <path fill="#FFE082" d="M25 42.3a17.3 17.3 0 1 0 0-34.6 17.3 17.3 0 0 0 0 34.6Z"/>
  <path fill="#FFB007" d="M24.2 40V9h2v31h-2ZM29 19.5c-.1-.9-.5-1.5-1-2-.7-.5-1.6-.8-2.8-.8-.7 0-1.4.1-1.9.3-.5.2-.9.5-1.1.9a2 2 0 0 0-.4 1.2c0 .3 0 .6.2 1l.7.7 1.2.5 1.5.5 2 .4c1.3.3 2.4.7 3.3 1.1 1 .5 1.7 1 2.3 1.6.7.6 1.2 1.3 1.5 2.1.3.8.5 1.7.5 2.7a7 7 0 0 1-1.2 4c-.8 1.2-1.9 2-3.3 2.6-1.5.6-3.2 1-5.3 1-2 0-3.8-.4-5.3-1a7.6 7.6 0 0 1-3.6-2.9 8.7 8.7 0 0 1-1.3-4.8h5.7c0 .8.2 1.5.6 2 .4.6 1 1 1.6 1.3a6 6 0 0 0 2.3.4c.8 0 1.4-.1 2-.4a3 3 0 0 0 1.3-.9c.3-.4.5-.8.5-1.3s-.2-.9-.5-1.2c-.2-.3-.7-.6-1.2-.9L25 27l-2.5-.6c-2.1-.5-3.8-1.3-5-2.4a5.7 5.7 0 0 1-1.9-4.4c0-1.6.4-3 1.3-4 .8-1.2 2-2.1 3.4-2.8 1.4-.6 3-1 5-1 1.9 0 3.5.4 4.9 1a7.3 7.3 0 0 1 4.5 6.8H29Z"/>
</svg>
